<svg xmlns="http://www.w3.org/2000/svg" width="297mm" height="450.11mm" viewBox="0 0 841.89 1275.91">
  <title>glaser-poster</title>
  <rect width="841.89" height="1190.55"/>
  <g> 
    <rect x="809.69" y="16.39" width="32.2" height="93.16" fill="none"/>
    <rect x="809.69" width="32.2" height="52.96" fill="none"/>
    <g>
      <path d="M203.88,237.75l-36.58-67.9h-100l-13.19,67.9H32.54l43-218.55h33.13L227.26,237.75Zm-47.22-87.84L93.1,34.49,71.21,149.91Z" fill="#ffde00"/>
      <path d="M251.87,19.5h46.32q19.94,0,31.93,2.1t19.93,6.74A60.5,60.5,0,0,1,372.16,50.9a63.13,63.13,0,0,1,7.72,31.26,67.48,67.48,0,0,1-7,30.5,55.89,55.89,0,0,1-19.41,22.26,59.5,59.5,0,0,1-20.76,8.47Q320.66,146,301.94,146H273.3v91.74H251.87ZM273.3,40.93v83.2h31.63q26.38,0,39-10t12.59-31q0-21.89-12.67-32t-40.7-10.12Z" fill="#ffde00"/>
      <path d="M378.86,237.75H356.22L440.92,19.5H466.7l84.39,218.25H528.16l-26.08-68.5H404.94Zm115.72-88.14L453.21,40,412.43,149.61Z" fill="#ffde00"/>
      <path d="M580,40.93V237.75H558.91V19.5h58.61q19.34,0,31.1,2.92a62.81,62.81,0,0,1,42,34.1,72.15,72.15,0,0,1,7.57,32.38q0,25.34-15.07,43.62t-37.7,19.94l52.77,85.29H672.68L607.93,132.52h20.68q20.68,0,33.66-12.14t13-31.18a53.55,53.55,0,0,0-4-21,46,46,0,0,0-11.77-16.49A37.26,37.26,0,0,0,644,43.41q-9.08-2.47-32.31-2.48Z" fill="#ffde00"/>
      <path d="M773.74,237.75H752.3V40.93H708.68V19.5H817.36V40.93H773.74Z" fill="#ffde00"/>
    </g>
    <g>
      <path d="M32.54,494,151.11,275.4h33.13l43,218.55H205.68l-13.19-67.9H92.5L55.92,494Zm156.05-87.84L166.7,290.69,103.14,406.11Z" fill="#ffde00"/>
      <path d="M251.87,275.7h46.32q19.94,0,31.93,2.1t19.93,6.74a60.5,60.5,0,0,1,22.11,22.56,63.13,63.13,0,0,1,7.72,31.26,67.48,67.48,0,0,1-7,30.5,55.89,55.89,0,0,1-19.41,22.26,59.5,59.5,0,0,1-20.76,8.47q-12.08,2.63-30.8,2.62H273.3V494H251.87Zm21.43,21.43v83.2h31.63q26.38,0,39-10.05t12.59-31q0-21.88-12.67-32t-40.7-10.12Z" fill="#ffde00"/>
      <path d="M378.86,494H356.22l84.7-218.25H466.7L551.09,494H528.16l-26.08-68.5H404.94Zm115.72-88.14L453.21,296.23,412.43,405.81Z" fill="#ffde00"/>
      <path d="M580,297.13V494H558.91V275.7h58.61q19.34,0,31.1,2.92a62.81,62.81,0,0,1,42,34.1,72.15,72.15,0,0,1,7.57,32.38q0,25.33-15.07,43.62t-37.7,19.94L698.17,494H672.68L607.93,388.72h20.68q20.68,0,33.66-12.14t13-31.18a53.55,53.55,0,0,0-4-21,46,46,0,0,0-11.77-16.49A37.26,37.26,0,0,0,644,299.61q-9.08-2.48-32.31-2.48Z" fill="#ffde00"/>
      <path d="M773.74,494H752.3V297.13H708.68V275.7H817.36v21.43H773.74Z" fill="#ffde00"/>
    </g>
    <g>
      <path d="M203.88,750.57l-36.58-67.9h-100l-13.19,67.9H32.54L75.56,532h33.13L227.26,750.57Zm-47.22-87.84L93.1,547.31,71.21,662.73Z" fill="#ffde00"/>
      <path d="M251.87,532.32h46.32q19.94,0,31.93,2.1t19.93,6.74a60.5,60.5,0,0,1,22.11,22.56A63.13,63.13,0,0,1,379.88,595a67.48,67.48,0,0,1-7,30.5,55.89,55.89,0,0,1-19.41,22.26,59.5,59.5,0,0,1-20.76,8.47q-12.08,2.63-30.8,2.62H273.3v91.74H251.87Zm21.43,21.43V637h31.63q26.38,0,39-10.05t12.59-31q0-21.89-12.67-32t-40.7-10.12Z" fill="#ffde00"/>
      <path d="M378.86,750.57H356.22l84.7-218.25H466.7l84.39,218.25H528.16l-26.08-68.5H404.94Zm115.72-88.14L453.21,552.85,412.43,662.43Z" fill="#ffde00"/>
      <path d="M580,553.75V750.57H558.91V532.32h58.61q19.34,0,31.1,2.92a62.81,62.81,0,0,1,42,34.1,72.15,72.15,0,0,1,7.57,32.38q0,25.34-15.07,43.62t-37.7,19.94l52.77,85.29H672.68L607.93,645.34h20.68q20.68,0,33.66-12.14t13-31.18a53.55,53.55,0,0,0-4-21,46.13,46.13,0,0,0-11.77-16.5A37.36,37.36,0,0,0,644,556.23q-9.08-2.47-32.31-2.48Z" fill="#ffde00"/>
      <path d="M773.74,750.57H752.3V553.75H708.68V532.32H817.36v21.43H773.74Z" fill="#ffde00"/>
    </g>
    <g>
      <path d="M32.54,1006.21,151.11,787.66h33.13l43,218.55H205.68l-13.19-67.9H92.5l-36.58,67.9Zm156.05-87.84L166.7,803,103.14,918.37Z" fill="#ffde00"/>
      <path d="M251.87,788h46.32q19.94,0,31.93,2.09t19.93,6.75a60.5,60.5,0,0,1,22.11,22.56,63.09,63.09,0,0,1,7.72,31.25,67.5,67.5,0,0,1-7,30.51,56,56,0,0,1-19.41,22.26,59.5,59.5,0,0,1-20.76,8.47q-12.08,2.63-30.8,2.62H273.3v91.74H251.87Zm21.43,21.43v83.2h31.63q26.38,0,39-10.05t12.59-31q0-21.88-12.67-32t-40.7-10.12Z" fill="#ffde00"/>
      <path d="M378.86,1006.21H356.22L440.92,788H466.7l84.39,218.25H528.16l-26.08-68.5H404.94Zm115.72-88.14L453.21,808.49,412.43,918.07Z" fill="#ffde00"/>
      <path d="M580,809.39v196.82H558.91V788h58.61q19.34,0,31.1,2.92a62.81,62.81,0,0,1,42,34.1,72.12,72.12,0,0,1,7.57,32.38q0,25.33-15.07,43.62t-37.7,19.94l52.77,85.29H672.68L607.93,901h20.68q20.68,0,33.66-12.14t13-31.18a53.63,53.63,0,0,0-4-21,46.18,46.18,0,0,0-11.77-16.49A37.37,37.37,0,0,0,644,811.86q-9.08-2.46-32.31-2.47Z" fill="#ffde00"/>
      <path d="M773.74,1006.21H752.3V809.39H708.68V788H817.36v21.43H773.74Z" fill="#ffde00"/>
    </g>
  </g>
  <text transform="translate(232.15 1061.57)" font-size="35" fill="#fff" font-family="AvantGardeITCbyBT-Book, AvantGarde Bk BT">Be a part of the solutio<tspan x="351.78" y="0" letter-spacing="-0.02em">n</tspan><tspan x="370.69" y="0">.</tspan><tspan x="0" y="33">Sray apar</tspan><tspan x="147.96" y="33" letter-spacing="-0.05em">t</tspan><tspan x="155.6" y="33">.</tspan><tspan x="0" y="99">#COMB</tspan><tspan x="127.51" y="99" letter-spacing="-0.04em">AT</tspan><tspan x="158.73" y="99">COVID</tspan></text>
</svg>
